<svg width="74" height="42" viewBox="0 0 74 42" fill="none" xmlns="http://www.w3.org/2000/svg">
<path d="M4.608 38.18C4.024 38.18 3.492 38.084 3.012 37.892C2.532 37.7 2.12 37.42 1.776 37.052C1.432 36.684 1.164 36.232 0.972 35.696C0.788 35.152 0.696 34.532 0.696 33.836C0.696 33.14 0.8 32.524 1.008 31.988C1.224 31.444 1.512 30.988 1.872 30.62C2.232 30.252 2.652 29.972 3.132 29.78C3.612 29.588 4.124 29.492 4.668 29.492C5.012 29.492 5.32 29.516 5.592 29.564C5.872 29.612 6.112 29.668 6.312 29.732C6.52 29.796 6.688 29.86 6.816 29.924C6.944 29.988 7.032 30.036 7.08 30.068L6.744 31.028C6.672 30.98 6.568 30.928 6.432 30.872C6.296 30.816 6.14 30.76 5.964 30.704C5.796 30.648 5.608 30.604 5.4 30.572C5.2 30.532 4.996 30.512 4.788 30.512C4.348 30.512 3.952 30.588 3.6 30.74C3.248 30.892 2.948 31.112 2.7 31.4C2.452 31.688 2.26 32.04 2.124 32.456C1.996 32.864 1.932 33.324 1.932 33.836C1.932 34.332 1.988 34.784 2.1 35.192C2.22 35.6 2.396 35.952 2.628 36.248C2.86 36.536 3.148 36.76 3.492 36.92C3.844 37.08 4.252 37.16 4.716 37.16C5.252 37.16 5.696 37.104 6.048 36.992C6.4 36.88 6.664 36.78 6.84 36.692L7.14 37.652C7.084 37.692 6.984 37.744 6.84 37.808C6.696 37.864 6.516 37.92 6.3 37.976C6.084 38.032 5.832 38.08 5.544 38.12C5.256 38.16 4.944 38.18 4.608 38.18ZM21.643 33.836C21.643 33.124 21.747 32.496 21.955 31.952C22.171 31.408 22.459 30.956 22.819 30.596C23.187 30.228 23.611 29.952 24.091 29.768C24.579 29.584 25.095 29.492 25.639 29.492C26.175 29.492 26.679 29.584 27.151 29.768C27.631 29.952 28.051 30.228 28.411 30.596C28.771 30.956 29.055 31.408 29.263 31.952C29.479 32.496 29.587 33.124 29.587 33.836C29.587 34.548 29.479 35.176 29.263 35.72C29.055 36.264 28.771 36.72 28.411 37.088C28.051 37.448 27.631 37.72 27.151 37.904C26.679 38.088 26.175 38.18 25.639 38.18C25.095 38.18 24.579 38.088 24.091 37.904C23.611 37.72 23.187 37.448 22.819 37.088C22.459 36.72 22.171 36.264 21.955 35.72C21.747 35.176 21.643 34.548 21.643 33.836ZM22.867 33.836C22.867 34.34 22.931 34.8 23.059 35.216C23.187 35.624 23.367 35.972 23.599 36.26C23.839 36.548 24.127 36.772 24.463 36.932C24.807 37.084 25.191 37.16 25.615 37.16C26.039 37.16 26.419 37.084 26.755 36.932C27.091 36.772 27.375 36.548 27.607 36.26C27.847 35.972 28.031 35.624 28.159 35.216C28.287 34.8 28.351 34.34 28.351 33.836C28.351 33.332 28.287 32.876 28.159 32.468C28.031 32.052 27.847 31.7 27.607 31.412C27.375 31.124 27.091 30.904 26.755 30.752C26.419 30.592 26.039 30.512 25.615 30.512C25.191 30.512 24.807 30.592 24.463 30.752C24.127 30.904 23.839 31.124 23.599 31.412C23.367 31.7 23.187 32.052 23.059 32.468C22.931 32.876 22.867 33.332 22.867 33.836ZM51.8869 33.836C51.8869 34.556 51.7749 35.184 51.5509 35.72C51.3269 36.248 51.0109 36.688 50.6029 37.04C50.1949 37.384 49.7069 37.644 49.1389 37.82C48.5709 37.988 47.9469 38.072 47.2669 38.072C46.9309 38.072 46.5589 38.056 46.1509 38.024C45.7509 38 45.3869 37.948 45.0589 37.868V29.804C45.3869 29.724 45.7509 29.672 46.1509 29.648C46.5589 29.616 46.9309 29.6 47.2669 29.6C47.9469 29.6 48.5709 29.688 49.1389 29.864C49.7069 30.032 50.1949 30.292 50.6029 30.644C51.0109 30.988 51.3269 31.428 51.5509 31.964C51.7749 32.492 51.8869 33.116 51.8869 33.836ZM47.3629 37.052C48.4669 37.052 49.2909 36.772 49.8349 36.212C50.3789 35.644 50.6509 34.852 50.6509 33.836C50.6509 32.82 50.3789 32.032 49.8349 31.472C49.2909 30.904 48.4669 30.62 47.3629 30.62C47.0349 30.62 46.7789 30.624 46.5949 30.632C46.4189 30.64 46.2949 30.648 46.2229 30.656V37.016C46.2949 37.024 46.4189 37.032 46.5949 37.04C46.7789 37.048 47.0349 37.052 47.3629 37.052ZM67.3536 38V29.684H72.4296V30.68H68.5176V33.152H71.9976V34.124H68.5176V37.004H72.7296V38H67.3536Z" fill="white"/>
<path d="M5.38 18.62C5.82 18.62 6.18 18.5867 6.46 18.52C6.75333 18.44 6.98667 18.34 7.16 18.22C7.33333 18.0867 7.45333 17.9333 7.52 17.76C7.58667 17.5867 7.62 17.3933 7.62 17.18C7.62 16.7267 7.40667 16.3533 6.98 16.06C6.55333 15.7533 5.82 15.4267 4.78 15.08C4.32667 14.92 3.87333 14.74 3.42 14.54C2.96667 14.3267 2.56 14.0667 2.2 13.76C1.84 13.44 1.54667 13.06 1.32 12.62C1.09333 12.1667 0.98 11.62 0.98 10.98C0.98 10.34 1.1 9.76667 1.34 9.26C1.58 8.74 1.92 8.3 2.36 7.94C2.8 7.58 3.33333 7.30667 3.96 7.12C4.58667 6.92 5.29333 6.82 6.08 6.82C7.01333 6.82 7.82 6.92 8.5 7.12C9.18 7.32 9.74 7.54 10.18 7.78L9.28 10.24C8.89333 10.04 8.46 9.86667 7.98 9.72C7.51333 9.56 6.94667 9.48 6.28 9.48C5.53333 9.48 4.99333 9.58667 4.66 9.8C4.34 10 4.18 10.3133 4.18 10.74C4.18 10.9933 4.24 11.2067 4.36 11.38C4.48 11.5533 4.64667 11.7133 4.86 11.86C5.08667 11.9933 5.34 12.12 5.62 12.24C5.91333 12.3467 6.23333 12.46 6.58 12.58C7.3 12.8467 7.92667 13.1133 8.46 13.38C8.99333 13.6333 9.43333 13.9333 9.78 14.28C10.14 14.6267 10.4067 15.0333 10.58 15.5C10.7533 15.9667 10.84 16.5333 10.84 17.2C10.84 18.4933 10.3867 19.5 9.48 20.22C8.57333 20.9267 7.20667 21.28 5.38 21.28C4.76667 21.28 4.21333 21.24 3.72 21.16C3.22667 21.0933 2.78667 21.0067 2.4 20.9C2.02667 20.7933 1.7 20.68 1.42 20.56C1.15333 20.44 0.926667 20.3267 0.74 20.22L1.62 17.74C2.03333 17.9667 2.54 18.1733 3.14 18.36C3.75333 18.5333 4.5 18.62 5.38 18.62ZM13.2406 7.14H16.3606V21H13.2406V7.14ZM23.2487 7.14C23.4888 7.58 23.7621 8.12667 24.0688 8.78C24.3888 9.42 24.7154 10.12 25.0488 10.88C25.3954 11.6267 25.7354 12.3933 26.0688 13.18C26.4021 13.9667 26.7154 14.7067 27.0088 15.4C27.3021 14.7067 27.6154 13.9667 27.9488 13.18C28.2821 12.3933 28.6154 11.6267 28.9488 10.88C29.2954 10.12 29.6221 9.42 29.9288 8.78C30.2488 8.12667 30.5288 7.58 30.7688 7.14H33.6088C33.7421 8.06 33.8621 9.09333 33.9688 10.24C34.0888 11.3733 34.1888 12.56 34.2688 13.8C34.3621 15.0267 34.4421 16.26 34.5088 17.5C34.5888 18.74 34.6554 19.9067 34.7088 21H31.6688C31.6288 19.6533 31.5754 18.1867 31.5088 16.6C31.4421 15.0133 31.3421 13.4133 31.2088 11.8C30.9688 12.36 30.7021 12.98 30.4088 13.66C30.1154 14.34 29.8221 15.02 29.5288 15.7C29.2488 16.38 28.9754 17.0333 28.7088 17.66C28.4421 18.2733 28.2154 18.8 28.0288 19.24H25.8488C25.6621 18.8 25.4354 18.2733 25.1688 17.66C24.9021 17.0333 24.6221 16.38 24.3288 15.7C24.0488 15.02 23.7621 14.34 23.4688 13.66C23.1754 12.98 22.9088 12.36 22.6688 11.8C22.5354 13.4133 22.4354 15.0133 22.3688 16.6C22.3021 18.1867 22.2488 19.6533 22.2088 21H19.1688C19.2221 19.9067 19.2821 18.74 19.3488 17.5C19.4288 16.26 19.5088 15.0267 19.5888 13.8C19.6821 12.56 19.7821 11.3733 19.8888 10.24C20.0088 9.09333 20.1354 8.06 20.2688 7.14H23.2487ZM41.678 6.98C43.7446 6.98 45.3313 7.34667 46.438 8.08C47.5446 8.8 48.098 9.98667 48.098 11.64C48.098 13.3067 47.538 14.5133 46.418 15.26C45.298 15.9933 43.698 16.36 41.618 16.36H40.638V21H37.518V7.34C38.198 7.20667 38.918 7.11333 39.678 7.06C40.438 7.00667 41.1046 6.98 41.678 6.98ZM41.878 9.64C41.6513 9.64 41.4246 9.64667 41.198 9.66C40.9846 9.67333 40.798 9.68667 40.638 9.7V13.7H41.618C42.698 13.7 43.5113 13.5533 44.058 13.26C44.6046 12.9667 44.878 12.42 44.878 11.62C44.878 11.2333 44.8046 10.9133 44.658 10.66C44.5246 10.4067 44.3246 10.2067 44.058 10.06C43.8046 9.9 43.4913 9.79333 43.118 9.74C42.7446 9.67333 42.3313 9.64 41.878 9.64ZM59.6491 18.32V21H50.3891V7.14H53.5091V18.32H59.6491ZM61.6586 21V7.14H71.0186V9.76H64.7786V12.48H70.3186V15.04H64.7786V18.38H71.4786V21H61.6586Z" fill="white"/>
</svg>
